# xmcd
#
# Track frame offsets: 
#        150
#        12357
#        40472
#        62382
#        80242
#        106567
#        126787
#        160272
#        198525
#
# Disc length: 2995 seconds
#
# Revision: 3
# Processed by: cddbd v1.5.2PL0 Copyright (c) Steve Scherf et al.
# Submitted via: ExactAudioCopy v1.0b6
#
DISCID=700bb109
DTITLE=白井貴子 and Crazy Boys - NEXT GATE LIVE Disc 1 50DH-542-3
DYEAR=1986
DGENRE=Rock
TTITLE0=Theme for Next Gate
TTITLE1=Non Age
TTITLE2=Raspberry Gun
TTITLE3=Chance!
TTITLE4=気まぐれ Lover boy
TTITLE5=Together
TTITLE6=Shining Dance
TTITLE7=Back Again
TTITLE8=A Friend Of Mine
EXTD=
EXTT0=
EXTT1=
EXTT2=
EXTT3=
EXTT4=
EXTT5=
EXTT6=
EXTT7=
EXTT8=
PLAYORDER=
